{"title":"San.Andreas.2015.HDRip.x264-MenaceIISociety","uid":12291986,"size":1142735927,"categoryP":"video","categoryS":"movies","magnet":"?xt=urn:btih:c0875fdaa094ed2d5530abc5cc8574bfb0c0a275&amp;dn=San.Andreas.2015.HDRip.x264-MenaceIISociety&amp;tr=udp%3A%2F%2Ftracker.openbittorrent.com%3A80&amp;tr=udp%3A%2F%2Fopen.demonii.com%3A1337&amp;tr=udp%3A%2F%2Ftracker.coppersurfer.tk%3A6969&amp;tr=udp%3A%2F%2Fexodus.desync.com%3A6969","seeders":0,"leechers":0,"uploader":"TvTeam","files":4,"time":1440560081,"description":"------------------------------------------------------------------------\n\n &lt;a href=&quot; https://www.torrenting.com&quot; rel=&quot;nofollow&quot; target=&quot;_NEW&quot;&gt; https://www.torrenting.com&lt;/a&gt;\n\nSign up is OPEN - for time being. Come and have fun\n\n.......................................................................................................................[center][img]http://s30.postimg.org/ae6vsoigx/j_Qw_OTA4_NTE_V1_SX214_AL.jpg[/img]\n\nSan.Andreas.2015.HDRip.x264-MenaceIISociety &lt;a href=&quot;\nhttp://www.imdb.com/title/tt2126355/&quot; rel=&quot;nofollow&quot; target=&quot;_NEW&quot;&gt;\nhttp://www.imdb.com/title/tt2126355/&lt;/a&gt;\n\nSource: 720p.WEB-DL.AAC.2.0.H264-SRS [THANKS]\n\nGeneral\nComplete name                            : San.Andreas.2015.HDRip.x264-MenaceIISociety.mp4\nFormat                                   : MPEG-4\nFormat profile                           : Base Media\nCodec ID                                 : isom\nFile size                                : 1.04 GiB\nDuration                                 : 1h 54mn\nOverall bit rate mode                    : Variable\nOverall bit rate                         : 1 303 Kbps\nEncoded date                             : UTC 2015-08-26 00:15:39\nTagged date                              : UTC 2015-08-26 00:15:39\n\nVideo\nID                                       : 1\nFormat                                   : AVC\nFormat/Info                              : Advanced Video Codec\nFormat profile                           : &lt;a class=&quot;__cf_email__&quot; href=&quot;/cdn-cgi/l/email-protection&quot; data-cfemail=&quot;420a2b252a020e766c73&quot;&gt;[email&amp;#160;protected]&lt;/a&gt;&lt;script data-cfhash='f9e31' type=&quot;text/javascript&quot;&gt;\n/* &lt;![CDATA[ */!function(){try{var t=&quot;currentScript&quot;in document?document.currentScript:function(){for(var t=document.getElementsByTagName(&quot;script&quot;),e=t.length;e--;)if(t[e].getAttribute(&quot;data-cfhash&quot;))return t[e]}();if(t&amp;&amp;t.previousSibling){var e,r,n,i,c=t.previousSibling,a=c.getAttribute(&quot;data-cfemail&quot;);if(a){for(e=&quot;&quot;,r=parseInt(a.substr(0,2),16),n=2;a.length-n;n+=2)i=parseInt(a.substr(n,2),16)^r,e+=String.fromCharCode(i);e=document.createTextNode(e),c.parentNode.replaceChild(e,c)}t.parentNode.removeChild(t);}}catch(u){}}()/* ]]&gt; */&lt;/script&gt;\nFormat settings, CABAC                   : Yes\nFormat settings, ReFrames                : 3 frames\nCodec ID                                 : avc1\nCodec ID/Info                            : Advanced Video Coding\nDuration                                 : 1h 54mn\nBit rate mode                            : Variable\nBit rate                                 : 1 168 Kbps\nMaximum bit rate                         : 40.0 Mbps\nWidth                                    : 720 pixels\nHeight                                   : 304 pixels\nDisplay aspect ratio                     : 2.35:1\nFrame rate mode                          : Constant\nFrame rate                               : 23.976 fps\nColor space                              : YUV\nChroma subsampling                       : 4:2:0\nBit depth                                : 8 bits\nScan type                                : Progressive\nBits/(Pixel*Frame)                       : 0.223\nStream size                              : 956 MiB (90%)\nWriting library                          : x264 core 148 r2579 73ae2d1\n\nAudio\nID                                       : 2\nFormat                                   : AAC\nFormat/Info                              : Advanced Audio Codec\nFormat profile                           : LC\nCodec ID                                 : 40\nDuration                                 : 1h 54mn\nBit rate mode                            : Variable\nBit rate                                 : 132 Kbps\nMaximum bit rate                         : 161 Kbps\nChannel(s)                               : 2 channels\nChannel positions                        : Front: L R\nSampling rate                            : 48.0 KHz\nCompression mode                         : Lossy\nStream size                              : 107 MiB (10%)\nLanguage                                 : English\nEncoded date                             : UTC 2015-08-25 22:38:42\nTagged date                              : UTC 2015-08-26 00:19:31 \n\n[img]http://s22.postimg.org/exrqt0lq9/vlcsnap_2015_08_26_02h25m42s660.jpg[/img]\n[img]http://s22.postimg.org/q8uehdsld/vlcsnap_2015_08_26_02h26m50s824.jpg[/img]\n[img]http://s22.postimg.org/dla1r4oap/vlcsnap_2015_08_26_02h27m50s499.jpg[/img]\n[img]http://s22.postimg.org/3zghatx4x/vlcsnap_2015_08_26_02h28m13s038.jpg[/img] \n \n[img]http://s17.postimg.org/r1iiyw8yn/Untitled_1.png[/img][/center]","torrent":{"xt":"urn:btih:c0875fdaa094ed2d5530abc5cc8574bfb0c0a275","amp;dn":"San.Andreas.2015.HDRip.x264-MenaceIISociety","amp;tr":["udp%3A%2F%2Ftracker.openbittorrent.com%3A80","udp%3A%2F%2Fopen.demonii.com%3A1337","udp%3A%2F%2Ftracker.coppersurfer.tk%3A6969","udp%3A%2F%2Fexodus.desync.com%3A6969"],"infoHash":"c0875fdaa094ed2d5530abc5cc8574bfb0c0a275","infoHashBuffer":{"type":"Buffer","data":[192,135,95,218,160,148,237,45,85,48,171,197,204,133,116,191,176,192,162,117]},"announce":[],"urlList":[]}}